# xmcd CD database file
#
# Track frame offsets:
#	150
#	2392
#	4610
#	6715
#	8782
#	13137
#	17062
#	21125
#	25085
#	28372
#	31492
#	36225
#	38507
#	40720
#	44030
#	49952
#	53390
#	56810
#	62782
#	66582
#	81920
#	84322
#	86537
#	88740
#	91005
#	94497
#	102050
#	105367
#	107510
#	109087
#	112135
#	113855
#	117117
#	119257
#	121482
#	123642
#	125895
#	128422
#	130745
#	133237
#	135587
#	138215
#	141035
#	143715
#	145985
#	148065
#	152467
#	159940
#	164587
#	168742
#	173075
#	179110
#	183550
#	188147
#	189932
#	191772
#	193582
#	195390
#	198187
#	201380
#	206357
#	211155
#	215857
#	221117
#	223750
#	226645
#	228612
#	230485
#	232367
#	234542
#
# Disc length: 3195 seconds
#
# Revision: 0
# Processed by: cddbd v1.5.2PL0 Copyright (c) Steve Scherf et al.
# Submitted via: CDex 1.70beta2
#
DISCID=fc0c7946
DTITLE=Hal Crook - How To Improvise
DYEAR=1993
DGENRE=Jazz
TTITLE0=III:1
TTITLE1=III:2
TTITLE2=III:3
TTITLE3=III:4
TTITLE4=III:17
TTITLE5=III:18
TTITLE6=III:19
TTITLE7=III:20
TTITLE8=III:23
TTITLE9=III:26
TTITLE10=III:28
TTITLE11=III:29
TTITLE12=III:30
TTITLE13=III:35
TTITLE14=III:36
TTITLE15=III:38
TTITLE16=III:39
TTITLE17=III:45
TTITLE18=III:47
TTITLE19=III:56
TTITLE20=III:57
TTITLE21=III:58
TTITLE22=III:59
TTITLE23=III:60
TTITLE24=III:61
TTITLE25=IV:2
TTITLE26=IV:3
TTITLE27=IV:6
TTITLE28=IV:7
TTITLE29=IV:8
TTITLE30=IV:13
TTITLE31=IV:14
TTITLE32=IV:20
TTITLE33=IV:21
TTITLE34=IV:22
TTITLE35=IV:23
TTITLE36=IV:24
TTITLE37=IV:25
TTITLE38=IV:26
TTITLE39=IV:27
TTITLE40=IV:28
TTITLE41=IV:29
TTITLE42=V:1
TTITLE43=V:2
TTITLE44=V:3
TTITLE45=V:4
TTITLE46=V:5
TTITLE47=V:6
TTITLE48=V:7
TTITLE49=V:9
TTITLE50=V:11
TTITLE51=V:19
TTITLE52=V:21
TTITLE53=V:22
TTITLE54=V:23
TTITLE55=V:24
TTITLE56=V:25
TTITLE57=V:26
TTITLE58=V:27
TTITLE59=V:28
TTITLE60=V:34
TTITLE61=V:35
TTITLE62=V:36
TTITLE63=V:45
TTITLE64=V:46
TTITLE65=V:47
TTITLE66=V:48
TTITLE67=V:49
TTITLE68=V:50
TTITLE69=V:51
EXTD=YEAR: 1993
EXTT0=
EXTT1=
EXTT2=
EXTT3=
EXTT4=
EXTT5=
EXTT6=
EXTT7=
EXTT8=
EXTT9=
EXTT10=
EXTT11=
EXTT12=
EXTT13=
EXTT14=
EXTT15=
EXTT16=
EXTT17=
EXTT18=
EXTT19=
EXTT20=
EXTT21=
EXTT22=
EXTT23=
EXTT24=
EXTT25=
EXTT26=
EXTT27=
EXTT28=
EXTT29=
EXTT30=
EXTT31=
EXTT32=
EXTT33=
EXTT34=
EXTT35=
EXTT36=
EXTT37=
EXTT38=
EXTT39=
EXTT40=
EXTT41=
EXTT42=
EXTT43=
EXTT44=
EXTT45=
EXTT46=
EXTT47=
EXTT48=
EXTT49=
EXTT50=
EXTT51=
EXTT52=
EXTT53=
EXTT54=
EXTT55=
EXTT56=
EXTT57=
EXTT58=
EXTT59=
EXTT60=
EXTT61=
EXTT62=
EXTT63=
EXTT64=
EXTT65=
EXTT66=
EXTT67=
EXTT68=
EXTT69=
PLAYORDER=
